<?xml version="1.0" encoding="utf-8"?>
<!-- Generator: Adobe Illustrator 27.5.0, SVG Export Plug-In . SVG Version: 6.00 Build 0)  -->
<svg version="1.1" id="COD_x5F_MW3_x5F_ICON" xmlns="http://www.w3.org/2000/svg" xmlns:xlink="http://www.w3.org/1999/xlink"
	 x="0px" y="0px" viewBox="0 0 1728 504" style="enable-background:new 0 0 1728 504;" xml:space="preserve">
<style type="text/css">
	.st0{fill:#D80000;}
	.st1{fill-rule:evenodd;clip-rule:evenodd;fill:#FFFFFF;}
</style>
<path id="III_00000154409082969091041530000012956753807431131806_" class="st0" d="M1236.77,91.25h88.07v321.62h-102.19V116.3
	L1236.77,91.25z M1481.97,91.25v321.38h88.6l13.61-24.48V91.25H1481.97z M1352.3,412.87h102.19V91.25H1352.3V412.87z"/>
<path id="MW" class="st1" d="M608.92,339.73l102.75-99.94V91.13H594.3L427.81,260.24L261.15,91.31H143.82v321.6h102.67l0.11-173.55
	H263L427.71,399.4l164.75-160.26h16.4L608.92,339.73z M1074.01,91.41l-0.11,173.55h-16.4L892.72,104.66L608.8,380.14l0,32.7h117.35
	l166.68-168.98l166.51,169.17h117.38V91.41H1074.01z"/>
</svg>
